<?xml version="1.0" encoding="UTF-8"?>
<svg id="Layer_2" data-name="Layer 2" xmlns="http://www.w3.org/2000/svg" viewBox="0 0 108.93 100.63">
  <defs>
    <style>
      .cls-1 {
        fill: #6c6276;
      }
    </style>
  </defs>
  <g id="Student_Demo_2" data-name="Student Demo 2">
    <g>
      <path class="cls-1" d="M12.7,93.66c0,2.38-1.88,3.76-5.55,3.76H0v-13.84H6.74c3.44,0,5.23,1.42,5.23,3.58,.05,1.28-.69,2.48-1.83,3.03,1.56,.5,2.61,1.93,2.57,3.48Zm-9.54-7.61v3.25h3.16c1.56,0,2.43-.55,2.43-1.65s-.87-1.6-2.43-1.6H3.16Zm6.28,7.29c0-1.15-.87-1.7-2.57-1.7H3.16v3.44h3.71c1.7-.05,2.57-.55,2.57-1.74Z"/>
      <path class="cls-1" d="M14.26,90.54c0-4.13,3.21-7.15,7.56-7.15s7.56,3.03,7.56,7.15-3.21,7.15-7.56,7.15-7.56-3.03-7.56-7.15Zm11.92,0c-.05-2.38-2.02-4.26-4.45-4.22-2.38,.05-4.26,2.02-4.22,4.45,.05,2.34,1.97,4.22,4.36,4.22,2.34,.05,4.26-1.79,4.31-4.13,0-.14,0-.23,0-.32Z"/>
      <path class="cls-1" d="M31.72,91.37v-7.75h3.16v7.61c0,2.66,1.15,3.71,3.07,3.71s3.07-1.1,3.07-3.71v-7.61h3.16v7.75c0,4.08-2.34,6.33-6.28,6.33-3.9,0-6.19-2.25-6.19-6.33Z"/>
      <path class="cls-1" d="M50.06,86.23h-4.45v-2.61h12.06v2.61h-4.45v11.23h-3.21l.05-11.23Z"/>
      <path class="cls-1" d="M59.41,83.62h3.16v13.84h-3.16v-13.84Z"/>
      <path class="cls-1" d="M80.87,98.93c-.92,1.1-2.29,1.74-3.71,1.7-2.06,0-3.48-.73-5.64-2.98-3.81-.46-6.46-3.35-6.46-7.11,0-4.13,3.16-7.15,7.56-7.15s7.56,3.03,7.56,7.15c.05,3.12-1.97,5.87-4.95,6.74,.46,.6,1.19,.96,1.97,.96,.87,0,1.7-.37,2.25-1.01l1.42,1.7Zm-8.25-3.94c2.43,.05,4.49-1.88,4.54-4.31,.05-2.43-1.88-4.49-4.31-4.54-2.43-.05-4.49,1.88-4.54,4.31v.09c-.09,2.34,1.7,4.31,4.03,4.45,.09,0,.18,0,.28,0Z"/>
      <path class="cls-1" d="M82.47,91.37v-7.75h3.21v7.61c0,2.66,1.15,3.71,3.07,3.71s3.07-1.1,3.07-3.71v-7.61h3.16v7.75c0,4.08-2.34,6.33-6.28,6.33s-6.23-2.25-6.23-6.33Z"/>
      <path class="cls-1" d="M108.93,94.9v2.57h-10.73v-13.84h10.45v2.57h-7.29v2.98h6.42v2.48h-6.42v3.16l7.56,.09Z"/>
      <path class="cls-1" d="M58.68,34.11c0-1.15-.92-2.06-2.11-2.11h-5.55v4.17h5.55c1.15,0,2.06-.92,2.11-2.06Z"/>
      <path class="cls-1" d="M27,32.09c2.43-1.74,4.03-5.32,5.13-8.99-.6,0-1.15-.05-1.65-.05-6.78,0-8.66,2.2-9.17,3.16-.83,1.6-.14,3.48,1.01,4.81h0s0,.05,.05,.05c.14,.18,.32,.32,.46,.46,.55,.41,2.38,1.79,4.17,.55Z"/>
      <path class="cls-1" d="M36.81,36.77c-2.38,1.47-4.63,3.07-6.83,4.81,2.2,3.94,3.9,8.34,3.25,12.06-.18,1.01-.6,1.93-1.28,2.66,1.6,.23,3.44,.55,5.32,.96,.41-3.48,1.05-6.92,1.93-10.27-1.6-2.7-2.43-5.78-2.43-8.94,0-.46,0-.87,.05-1.28Z"/>
      <path class="cls-1" d="M22.65,53.09c.55,1.7,2.38,2.57,4.13,2.66h.73c.69-.05,2.98-.37,3.35-2.52,.5-2.93-.87-6.6-2.75-9.99-6.05,5.5-5.82,8.76-5.46,9.86Z"/>
      <path class="cls-1" d="M54.46,20.31c.41,0,.83,.05,1.24,.05-1.47-2.38-3.12-4.63-4.86-6.83-3.94,2.2-8.34,3.85-12.01,3.25-1.01-.18-1.93-.6-2.66-1.28-.23,1.6-.55,3.44-.96,5.32,3.48,.41,6.92,1.05,10.31,1.93,2.7-1.6,5.82-2.43,8.94-2.43Z"/>
      <path class="cls-1" d="M36.72,10.36v.69c.05,.69,.37,2.98,2.52,3.35,2.93,.46,6.6-.87,9.99-2.75-4.31-4.72-7.2-5.59-8.8-5.59-.37,0-.73,.05-1.05,.14-1.74,.5-2.61,2.34-2.66,4.17h0Z"/>
      <path class="cls-1" d="M72.11,39.24c2.38-1.47,4.63-3.07,6.83-4.81-2.2-3.94-3.9-8.34-3.25-12.01,.18-1.01,.6-1.93,1.28-2.66-1.6-.23-3.44-.55-5.32-.96-.41,3.48-1.05,6.92-1.93,10.27,1.6,2.7,2.43,5.82,2.43,8.94,0,.41,0,.83-.05,1.24Z"/>
      <path class="cls-1" d="M86.28,22.92c-.55-1.79-2.61-2.7-4.45-2.7h-.41c-.69,.05-2.98,.37-3.35,2.52-.5,2.93,.87,6.6,2.75,9.99,6.05-5.46,5.82-8.71,5.46-9.81Z"/>
      <path class="cls-1" d="M69.41,15.68c.41-8.16-2.11-10.31-3.12-10.86-.46-.23-1.01-.37-1.51-.37-1.47,.09-2.84,.78-3.81,1.93-.46,.55-1.83,2.38-.6,4.17,1.79,2.43,5.32,4.03,9.03,5.13Z"/>
      <path class="cls-1" d="M67.8,26.41c.64-2.7,1.1-5.46,1.42-8.25-4.36-1.24-8.66-3.16-10.82-6.19-.6-.83-.92-1.79-.96-2.8-1.28,.96-2.8,2.06-4.45,3.07,2.15,2.75,4.13,5.64,5.91,8.62,3.48,.92,6.56,2.84,8.89,5.55Z"/>
      <path class="cls-1" d="M37.36,33.56c.92-3.44,2.84-6.56,5.5-8.89-2.7-.64-5.46-1.1-8.25-1.42-1.24,4.36-3.16,8.66-6.19,10.82-.83,.6-1.79,.92-2.8,.96,.96,1.28,2.06,2.8,3.12,4.45,2.75-2.15,5.59-4.13,8.62-5.91Z"/>
      <path class="cls-1" d="M80.5,41.95c.83-.6,1.79-.92,2.8-.96-.96-1.28-2.06-2.8-3.07-4.45-2.75,2.15-5.64,4.13-8.62,5.91-.92,3.44-2.84,6.56-5.5,8.89,2.7,.64,5.46,1.1,8.25,1.42,1.19-4.36,3.12-8.62,6.14-10.82Z"/>
      <path class="cls-1" d="M72.25,65.69v-.69c-.05-.69-.37-2.98-2.52-3.35-2.93-.46-6.6,.87-9.99,2.75,5.5,6.05,8.76,5.82,9.86,5.46,1.65-.55,2.57-2.38,2.66-4.17h0Z"/>
      <path class="cls-1" d="M54.46,55.7c-.41,0-.83-.05-1.24-.05,1.47,2.38,3.07,4.63,4.81,6.83,3.94-2.2,8.34-3.9,12.01-3.25,1.01,.18,1.93,.6,2.66,1.28,.23-1.6,.55-3.44,.96-5.32-3.48-.41-6.92-1.05-10.27-1.93-2.7,1.6-5.78,2.43-8.94,2.43Z"/>
      <path class="cls-1" d="M86.6,45.06h0c-.18-.23-.37-.37-.5-.5-.55-.46-2.38-1.83-4.17-.6-2.43,1.74-4.03,5.32-5.13,8.99,8.16,.37,10.31-2.11,10.82-3.12,.87-1.56,.18-3.48-1.01-4.77h0Z"/>
      <path class="cls-1" d="M41.12,49.6c-.64,2.7-1.1,5.46-1.42,8.25,4.36,1.24,8.66,3.16,10.82,6.19,.6,.83,.92,1.79,.96,2.8,1.28-.96,2.8-2.06,4.45-3.07-2.15-2.75-4.13-5.64-5.91-8.66-3.44-.92-6.56-2.8-8.89-5.5Z"/>
      <path class="cls-1" d="M59.28,41.35c0-1.47-1.19-2.66-2.7-2.7h-5.55v5.36h5.55c1.51,0,2.7-1.19,2.7-2.66Z"/>
      <path class="cls-1" d="M54.46,53.27c8.44,0,15.27-6.83,15.27-15.27s-6.83-15.27-15.27-15.27-15.22,6.83-15.22,15.27h0c0,8.44,6.83,15.22,15.22,15.27Zm-5.87-23.75h7.98c2.52,0,4.54,2.02,4.54,4.54,0,1.19-.46,2.38-1.33,3.21,2.2,1.79,2.57,5.04,.78,7.24-.96,1.24-2.43,1.93-3.99,1.93h-8.02l.05-16.92Z"/>
      <path class="cls-1" d="M89.9,42.04c-1.88-2.15-3.62-4.4-5.23-6.78,6.42-6.19,6.78-10.82,5.87-13.66-1.28-4.08-5.32-5.68-8.25-5.78-2.84-.18-5.64-.55-8.39-1.1,.14-8.94-2.84-12.42-5.5-13.84-1.1-.55-2.34-.87-3.58-.87-2.34,.05-4.58,.96-6.28,2.57-2.15,1.88-4.4,3.62-6.78,5.23-3.99-4.13-7.79-6.23-11.28-6.23-.83,0-1.6,.14-2.38,.37-3.3,1.05-5.55,4.22-5.78,8.16-.18,2.84-.55,5.68-1.1,8.48h-.64c-8.53,0-11.87,2.98-13.2,5.5-1.6,3.07-.92,6.92,1.7,9.86,1.88,2.15,3.62,4.4,5.23,6.78-6.42,6.19-6.78,10.82-5.87,13.66,1.01,3.21,3.67,4.86,6.28,5.5v.18l1.88,.09c2.84,.18,5.68,.55,8.53,1.1-.14,8.94,2.84,12.47,5.5,13.84,1.1,.6,2.34,.87,3.58,.87,1.65-.05,3.25-.5,4.68-1.38l.14,.14,1.47-1.33c2.15-1.88,4.4-3.62,6.78-5.23,3.99,4.13,7.79,6.23,11.28,6.23,.83,0,1.6-.14,2.38-.37,3.3-1.05,5.55-4.22,5.78-8.16,.18-2.84,.55-5.68,1.1-8.48h.64c8.53,0,11.83-2.98,13.16-5.5,1.56-3.07,.92-6.92-1.7-9.86Zm-.09,8.94c-1.1,2.11-4.36,4.95-13.66,4.4-.78,3.44-1.28,6.92-1.47,10.45h0c-.14,2.61-1.47,5.46-4.4,6.37-.6,.18-1.19,.28-1.79,.28-2.48,0-6.14-1.38-10.96-6.83-2.98,1.88-5.78,3.99-8.44,6.33h0c-1.33,1.28-3.07,2.02-4.91,2.06-.92,0-1.83-.23-2.66-.64-2.11-1.1-4.95-4.36-4.4-13.66-3.44-.78-6.92-1.28-10.45-1.47h0c-2.61-.14-5.46-1.47-6.37-4.4-.73-2.29-.41-6.56,6.56-12.74-1.88-2.98-3.99-5.78-6.33-8.44-1.74-1.93-2.84-4.91-1.42-7.61,1.1-2.11,4.36-4.91,13.66-4.4,.78-3.44,1.28-6.92,1.47-10.45h0c.14-2.61,1.47-5.46,4.4-6.37,2.29-.73,6.56-.41,12.74,6.56,2.98-1.88,5.78-4.03,8.44-6.37,1.93-1.74,4.91-2.8,7.61-1.42,2.11,1.1,4.95,4.36,4.4,13.66,3.39,.78,6.88,1.24,10.31,1.47,2.61,.09,5.55,1.42,6.46,4.4,.73,2.29,.41,6.56-6.56,12.74,1.88,2.98,3.99,5.78,6.33,8.44,1.79,1.97,2.84,4.95,1.42,7.66Z"/>
      <path class="cls-1" d="M39.52,60.33c-.41,8.16,2.11,10.31,3.12,10.86,1.6,.83,3.48,.14,4.81-1.01h0l.05-.05c.18-.14,.32-.32,.46-.46,.46-.55,1.88-2.38,.6-4.17-1.74-2.48-5.32-4.08-9.03-5.18Z"/>
    </g>
  </g>
</svg>